#!OML:ASF F:\VICON\USERDATA\INSTALL\Justin_Nancy\Justin_Nancy.ASF
:FULLY-SPECIFIED
:DEGREES
195
root 2.31621 16.7638 6.82912 41.3909 80.3674 35.2893
lowerback 9.05408 0.0803982 -6.60978
upperback 1.2375 -0.46186 1.12081
thorax -3.72724 -0.117142 4.95537
lowerneck -16.4693 -2.56717 -9.25115
upperneck 21.0947 -1.62745 3.03146
head 9.50726 -1.09638 2.38883
rclavicle -2.56432e-014 -1.59028e-014
rhumerus -36.1016 -7.85985 -79.0257
rradius 30.6877
rwrist 4.70992
rhand -22.2571 11.1903
rfingers 7.12502
rthumb 4.16047 -18.7488
lclavicle -2.56432e-014 -1.59028e-014
lhumerus -30.6463 7.07802 89.0155
lradius 33.8974
lwrist -0.742732
lhand -18.8041 23.918
lfingers 7.12502
lthumb 7.4942 53.7652
rfemur -43.3764 -3.37405 6.36274
rtibia 49.3134
rfoot -9.78741 -6.45002
rtoes -4.78668
lfemur -1.02988 0.753844 -38.0425
ltibia 23.8594
lfoot -22.5953 1.89686
ltoes 16.8409
196
root 2.53143 16.7549 6.90541 41.6967 80.8256 35.4376
lowerback 8.87048 0.0896272 -6.36679
upperback 1.25609 -0.413942 1.1025
thorax -3.61376 -0.101505 4.78979
lowerneck -16.4818 -2.7327 -8.99255
upperneck 21.0441 -1.96507 3.17777
head 9.51069 -1.21628 2.35226
rclavicle -1.33186e-014 1.59028e-014
rhumerus -36.2307 -8.44497 -79.153
rradius 30.6405
rwrist 4.93364
rhand -21.9873 11.3985
rfingers 7.12502
rthumb 4.42105 -18.5354
lclavicle -1.33186e-014 1.59028e-014
lhumerus -30.0188 5.72077 89.3352
lradius 34.2786
lwrist -0.900292
lhand -18.5311 23.6617
lfingers 7.12502
lthumb 7.75774 53.4994
rfemur -43.5538 -3.58356 6.99779
rtibia 45.4536
rfoot -9.21877 -6.80854
rtoes -3.79484
lfemur 0.533207 -0.693623 -37.8071
ltibia 22.4114
lfoot -22.2016 2.98465
ltoes 16.2649
197
root 2.75113 16.7385 6.99284 43.4152 81.1762 37.1887
lowerback 8.83523 0.102585 -6.55028
upperback 1.3313 -0.405767 1.16304
thorax -3.51436 -0.0996374 4.95585
lowerneck -16.3994 -2.83393 -8.78326
upperneck 20.8574 -2.16509 3.14132
head 9.43938 -1.29509 2.27677
rclavicle 1.19271e-015 8.74653e-015
rhumerus -36.3749 -8.80207 -79.0542
rradius 30.7446
rwrist 5.06155
rhand -21.9514 11.3299
rfingers 7.12502
rthumb 4.45573 -18.6032
lclavicle 1.19271e-015 8.74653e-015
lhumerus -29.3893 4.98109 89.7425
lradius 34.6572
lwrist -1.44759
lhand -18.9008 23.8863
lfingers 7.12502
lthumb 7.40092 53.7368
rfemur -43.3886 -3.87183 7.4445
rtibia 41.4471
rfoot -8.59588 -7.15409
rtoes -4.05079
lfemur 2.26883 -1.08932 -37.5938
ltibia 20.9415
lfoot -21.8693 2.9957
ltoes 14.9628
198
root 2.973 16.7272 7.08392 46.2282 81.4357 40.0341
lowerback 8.84692 -0.0924849 -6.91441
upperback 1.36452 -0.69575 1.2245
thorax -3.44149 -0.241985 5.2608
lowerneck -16.5399 -2.83126 -8.88678
upperneck 20.8794 -2.14523 3.23853
head 9.47405 -1.28359 2.3299
rclavicle -1.63003e-014 3.18055e-015
rhumerus -36.4171 -8.72824 -79.0769
rradius 30.7484
rwrist 5.29739
rhand -21.8374 11.3661
rfingers 7.12502
rthumb 4.56576 -18.5647
lclavicle -1.63003e-014 3.18055e-015
lhumerus -29.085 4.24341 90.1366
lradius 35.3906
lwrist -1.45927
lhand -19.7158 24.6418
lfingers 7.12502
lthumb 6.61418 54.5185
rfemur -42.9093 -3.76546 7.44197
rtibia 37.1006
rfoot -8.13156 -7.40933
rtoes -4.89836
lfemur 3.74954 -0.580232 -37.2785
ltibia 19.797
lfoot -21.6343 2.06109
ltoes 13.1742
199
root 3.19964 16.7174 7.1673 49.2727 81.6913 43.0074
lowerback 8.67592 -0.172025 -6.85795
upperback 1.38409 -0.793176 0.934736
thorax -3.31692 -0.297353 4.93057
lowerneck -16.7821 -3.08402 -8.85417
upperneck 21.042 -2.5929 3.68494
head 9.60917 -1.44062 2.42195
rclavicle 1.35174e-014 5.56597e-015
rhumerus -36.5818 -10.0236 -79.2691
rradius 30.6588
rwrist 5.845
rhand -21.5435 11.475
rfingers 7.12502
rthumb 4.8496 -18.4495
lclavicle 1.35174e-014 5.56597e-015
lhumerus -29.0349 0.826738 90.6087
lradius 36.5417
lwrist 0.336501
lhand -20.5335 25.4244
lfingers 7.12502
lthumb 5.82479 55.3243
rfemur -42.3924 -3.62156 7.34805
rtibia 32.7638
rfoot -7.96451 -7.54837
rtoes -7.02424
lfemur 5.08621 0.0769512 -36.9146
ltibia 18.6871
lfoot -21.3451 1.16366
ltoes 9.85827
200
root 3.43071 16.7018 7.25084 51.4503 81.9297 44.7603
lowerback 8.04237 -0.209044 -6.72304
upperback 1.30197 -0.799144 0.664109
thorax -3.05473 -0.3118 4.56031
lowerneck -16.6813 -3.13761 -8.41209
upperneck 20.9195 -2.83792 3.8419
head 9.55649 -1.50131 2.37031
rclavicle -2.5842e-015 -2.38542e-015
rhumerus -36.8249 -11.1855 -79.4674
rradius 30.5926
rwrist 6.30046
rhand -21.2656 11.5832
rfingers 7.12502
rthumb 5.11786 -18.335
lclavicle -2.5842e-015 -2.38542e-015
lhumerus -29.2419 -3.54212 91.0295
lradius 37.891
lwrist 3.06346
lhand -20.2235 24.8229
lfingers 7.12502
lthumb 6.12408 54.7144
rfemur -42.2086 -3.50592 7.4573
rtibia 28.5832
rfoot -8.06978 -7.70205
rtoes -7.6728
lfemur 6.10976 0.17352 -36.5627
ltibia 17.5085
lfoot -20.8963 0.85416
ltoes 6.64035
201
root 3.61243 16.7197 7.3923 56.7068 83.0515 50.0314
lowerback 8.63644 -0.492777 -7.08469
upperback 1.1732 -1.24845 0.918188
thorax -3.4495 -0.511213 5.09348
lowerneck -16.4902 -2.95651 -7.9331
upperneck 20.7198 -2.67701 3.61034
head 9.4281 -1.41405 2.23057
rclavicle 2.31584e-014 5.56597e-015
rhumerus -36.9329 -11.4925 -79.5513
rradius 30.528
rwrist 6.49538
rhand -21.4173 11.4667
rfingers 7.12502
rthumb 4.97145 -18.455
lclavicle 2.31584e-014 5.56597e-015
lhumerus -29.2701 -5.62146 91.1061
lradius 38.8542
lwrist 3.73125
lhand -19.1018 23.8929
lfingers 7.12502
lthumb 7.2069 53.7502
rfemur -41.0176 -2.97072 7.79741
rtibia 24.3906
rfoot -8.43749 -8.85606
rtoes -8.0903
lfemur 7.40656 1.50579 -34.733
ltibia 16.6222
lfoot -20.8698 -2.00561
ltoes 5.32369
202
root 3.83197 16.731 7.53859 65.6873 83.3479 58.8902
lowerback 8.57618 -0.676268 -8.18178
upperback 1.14691 -1.58723 0.987783
thorax -3.3633 -0.667893 5.82474
lowerneck -16.4972 -3.00775 -7.80683
upperneck 20.625 -2.78026 3.59855
head 9.40023 -1.45318 2.19083
rclavicle -1.81888e-014 -3.18055e-015
rhumerus -36.9335 -12.1926 -79.4424
rradius 30.3655
rwrist 6.87399
rhand -21.9593 11.2277
rfingers 7.12502
rthumb 4.44808 -18.7056
lclavicle -1.81888e-014 -3.18055e-015
lhumerus -28.9949 -6.16382 91.0441
lradius 39.4183
lwrist 3.21595
lhand -19.4008 23.8167
lfingers 7.12502
lthumb 6.9183 53.6836
rfemur -40.1398 -1.67513 6.76461
rtibia 20.9355
rfoot -9.02076 -10.5561
rtoes -8.0644
lfemur 8.70361 1.47339 -34.0959
ltibia 15.5133
lfoot -20.2692 -3.88275
ltoes 5.90728
203
root 4.06084 16.7518 7.61293 69.2477 85.1715 62.766
lowerback 8.8767 -1.07373 -6.47188
upperback 1.24099 -1.96041 1.29153
thorax -3.42013 -0.872726 5.22202
lowerneck -16.3881 -3.11273 -7.82445
upperneck 20.5121 -2.98852 3.84102
head 9.35706 -1.52508 2.25039
rclavicle -7.55382e-015 1.66979e-014
rhumerus -36.9326 -12.808 -79.4434
rradius 30.1417
rwrist 7.01025
rhand -21.7311 11.213
rfingers 7.12502
rthumb 4.6684 -18.7156
lclavicle -7.55382e-015 1.66979e-014
lhumerus -28.8532 -6.29663 90.9756
lradius 39.9014
lwrist 2.70551
lhand -20.0209 23.9782
lfingers 7.12502
lthumb 6.31963 53.8639
rfemur -38.514 -0.577369 7.65801
rtibia 17.6676
rfoot -9.36385 -12.2122
rtoes -7.14121
lfemur 10.3323 0.368713 -32.1402
ltibia 14.8458
lfoot -19.5877 -4.10134
ltoes 3.78706
204
root 4.30439 16.7226 7.73478 84.9398 83.2316 77.8063
lowerback 7.97114 -1.34358 -8.9871
upperback 1.05805 -2.50579 0.580282
thorax -2.95461 -1.13235 5.9179
lowerneck -16.3106 -3.15988 -7.67144
upperneck 20.3983 -3.1929 4.22587
head 9.31791 -1.56642 2.33161
rclavicle 2.48481e-015 -7.95139e-015
rhumerus -36.9596 -13.7223 -79.5621
rradius 29.8856
rwrist 7.07284
rhand -21.0669 11.469
rfingers 7.12502
rthumb 5.30975 -18.4445
lclavicle 2.48481e-015 -7.95139e-015
lhumerus -28.592 -6.22168 90.5573
lradius 40.0794
lwrist 1.79302
lhand -19.8623 23.531
lfingers 7.12502
lthumb 6.47273 53.4121
rfemur -38.4456 0.213409 4.38371
rtibia 15.3091
rfoot -8.90868 -14.1406
rtoes -8.53645
lfemur 10.6832 -0.0937388 -33.9726
ltibia 14.2396
lfoot -18.8384 -5.01517
ltoes 0.52693
205
root 4.53581 16.7245 7.77559 86.762 84.969 80.3966
lowerback 8.6332 -1.51003 -7.20842
upperback 1.25582 -2.5921 1.27556
thorax -3.14935 -1.18959 5.67758
lowerneck -16.3608 -3.21525 -8.27344
upperneck 20.4612 -3.10647 4.23357
head 9.35647 -1.57207 2.44563
rclavicle 2.99171e-014 1.78906e-014
rhumerus -37.0085 -13.6823 -79.0063
rradius 29.837
rwrist 6.83881
rhand -20.9194 11.4127
rfingers 7.12502
rthumb 5.45218 -18.4972
lclavicle 2.99171e-014 1.78906e-014
lhumerus -28.1719 -4.53319 90.7172
lradius 39.9633
lwrist 0.202805
lhand -19.2694 22.8887
lfingers 7.12502
lthumb 7.04507 52.7515
rfemur -36.7243 0.706372 6.33306
rtibia 13.4802
rfoot -7.58859 -14.5044
rtoes -14.1123
lfemur 12.3998 -0.753723 -32.0563
ltibia 14.322
lfoot -18.3901 -4.79689
ltoes -1.66936
206
root 4.77441 16.7149 7.87221 91.0866 85.2078 84.9013
lowerback 8.67709 -1.60954 -7.45344
upperback 1.22074 -2.73995 1.61979
thorax -3.15926 -1.25841 6.19868
lowerneck -16.2515 -3.22465 -8.84699
upperneck 20.5355 -2.98225 4.27325
head 9.36641 -1.5552 2.57246
rclavicle -1.5704e-014 7.55382e-015
rhumerus -37.2076 -13.5152 -78.6137
rradius 29.8306
rwrist 6.70583
rhand -21.0633 11.1237
rfingers 7.12502
rthumb 5.31327 -18.7896
lclavicle -1.5704e-014 7.55382e-015
lhumerus -27.7714 -1.8467 90.6076
lradius 39.7444
lwrist -1.65895
lhand -18.02 21.4798
lfingers 7.12502
lthumb 8.251 51.2987
rfemur -36.231 1.3256 6.63447
rtibia 13.2264
rfoot -8.35194 -15.4139
rtoes -9.04289
lfemur 13.3546 -1.26133 -31.486
ltibia 14.4825
lfoot -17.6775 -5.12374
ltoes -2.55558
207
root 5.00988 16.7221 7.96028 100.373 86.0401 94.253
lowerback 8.69117 -1.80358 -6.62933
upperback 1.14916 -2.91538 1.86047
thorax -3.24314 -1.34898 6.00502
lowerneck -16.116 -3.27439 -8.93102
upperneck 20.6089 -3.06071 4.36549
head 9.37576 -1.58893 2.61024
rclavicle -5.46658e-015 -9.93923e-015
rhumerus -37.432 -14.0883 -78.4011
rradius 29.7269
rwrist 6.75442
rhand -20.8184 10.9051
rfingers 7.12502
rthumb 5.54966 -19.0022
lclavicle -5.46658e-015 -9.93923e-015
lhumerus -28.1489 -4.82308 90.9158
lradius 40.5476
lwrist 1.29717
lhand -18.6174 21.6615
lfingers 7.12502
lthumb 7.67448 51.5022
rfemur -35.8121 0.943344 8.19177
rtibia 13.5019
rfoot -8.29932 -15.3265
rtoes -4.40242
lfemur 13.8998 -1.82714 -30.1551
ltibia 15.1033
lfoot -16.9627 -5.46591
ltoes -4.59942
208
root 5.25104 16.7226 8.03719 107.403 86.2163 101.337
lowerback 8.60948 -1.90714 -6.1004
upperback 1.07412 -3.0058 1.75484
thorax -3.2961 -1.39717 5.60007
lowerneck -16.107 -3.33304 -8.72735
upperneck 20.8219 -3.18199 4.3113
head 9.4525 -1.63576 2.54438
rclavicle 3.53837e-014 -7.55382e-015
rhumerus -37.707 -14.6744 -78.3508
rradius 29.6341
rwrist 6.73379
rhand -20.6447 10.9824
rfingers 7.12502
rthumb 5.71744 -18.9205
lclavicle 3.53837e-014 -7.55382e-015
lhumerus -28.4895 -6.73696 90.8042
lradius 41.1729
lwrist 2.92429
lhand -20.1661 23.3468
lfingers 7.12502
lthumb 6.17948 53.2366
rfemur -36.2522 -0.722234 9.84085
rtibia 15.4968
rfoot -6.94189 -12.9952
rtoes -4.13858
lfemur 14.7434 -2.43527 -29.6272
ltibia 15.0601
lfoot -15.753 -5.64453
ltoes -7.20061
